<svg width="88" height="96" id="expert_guidance" xmlns="http://www.w3.org/2000/svg" viewBox="0 0 86.9965 95.0055"><defs><style>.cls-1{fill:#9d6396;fill-rule:evenodd;}</style></defs><title>expert_guidance</title><path class="cls-1" d="M86.4147,4.7417h-.9492L87.522,2.6851a1.5281,1.5281,0,0,0,0-2.2138,1.53,1.53,0,0,0-2.2146,0L83.2509,2.527V1.5782a1.582,1.582,0,0,0-3.1639,0V5.6905L78.5052,7.2718V6.323a1.582,1.582,0,0,0-3.1639,0v4.1123l-8.0678,8.0665a39.5129,39.5129,0,1,0-53.627,58.045A40.0351,40.0351,0,0,0,29.1493,85.404l-4.2712,7.1177a1.6014,1.6014,0,0,0,2.6893,1.7394l4.7457-7.9084a40.3862,40.3862,0,0,0,16.2938,0l4.7457,7.9084a1.5562,1.5562,0,0,0,2.2147.4744,1.4065,1.4065,0,0,0,.4746-2.0566L51.7708,85.404A39.6448,39.6448,0,0,0,78.5052,36.2161a38.92,38.92,0,0,0-8.8588-15.5L77.7141,12.65h3.9548a1.495,1.495,0,0,0,1.582-1.5822,1.4943,1.4943,0,0,0-1.582-1.5813H80.72l1.5819-1.5823h4.113a1.4943,1.4943,0,0,0,1.582-1.5813A1.4943,1.4943,0,0,0,86.4147,4.7417ZM76.9232,47.4453a36.6236,36.6236,0,0,1-36.384,36.5355C20.4488,84.1389,4.155,67.69,3.9969,47.6034A36.3846,36.3846,0,0,1,65.0588,20.7157l-7.91,7.9083a25.4374,25.4374,0,1,0,2.2146,35.903,25.14,25.14,0,0,0,0-33.531l7.91-7.9075A35.2743,35.2743,0,0,1,76.9232,47.4453ZM39.4317,48.5522a1.53,1.53,0,0,0,2.2148,0L44.81,45.3886a4.8749,4.8749,0,0,1,.4746,2.0567A4.7458,4.7458,0,1,1,40.5392,42.7a4.8717,4.8717,0,0,1,2.0564.4744l-3.1639,3.1635A1.5284,1.5284,0,0,0,39.4317,48.5522Zm5.5368-7.7494a7.8725,7.8725,0,1,0,2.2147,2.2139L57.3074,32.8945A22.2022,22.2022,0,1,1,55.0928,30.68Z" transform="translate(-1.0002 0.0031)"/></svg>