<svg width="12" height="23" id="facebook" xmlns="http://www.w3.org/2000/svg" viewBox="0 0 12.2406 22.9254"><defs><style>.cls-1{fill:none;fill-rule:evenodd;}</style></defs><title>facebook</title><path class="cls-1" d="M11.7791,4.5033l-1.978.0009c-1.3632,0-1.6126.5377-1.6126,1.5976V8.3075h3.4524a.4591.4591,0,0,1,.3267.1365.4734.4734,0,0,1,.1352.3307l-.0015,3.7689a.4648.4648,0,0,1-.4616.4681H8.1883v9.51a.4649.4649,0,0,1-.4617.468H3.8752a.4648.4648,0,0,1-.4616-.468v-9.51H.4617A.4651.4651,0,0,1,0,12.5436V8.7747a.4642.4642,0,0,1,.4617-.4672H3.4138V5.706c0-3.4273,2.1314-5.6421,5.43-5.6421L11.78.0693a.4645.4645,0,0,1,.461.4672v3.5A.4646.4646,0,0,1,11.7791,4.5033Z" transform="translate(0 -0.0639)"/></svg>