<svg width="83" height="83" id="logistics" xmlns="http://www.w3.org/2000/svg" viewBox="0 0 83.0024 82.9932"><defs><style>.cls-1{fill:#9d6396;fill-rule:evenodd;}</style></defs><title>logistics</title><path class="cls-1" d="M81.4523,10.3247a40.5115,40.5115,0,0,1-7.2455,9.4319c-1.0977,1.0978-2.2631,2.2382-3.48,3.4093l3.0463,10.2252a3.8321,3.8321,0,0,1,5.0481,5.746l-2.57,2.5708.5,1.68a3.8348,3.8348,0,0,1,4.84,5.9014l-2.3749,2.3738,3.6052,12.1a1.2237,1.2237,0,0,1-.3077,1.2144l-3.1154,3.1148a1.2348,1.2348,0,0,1-1.852-.1419L60.8578,45.1515a1.2234,1.2234,0,0,1,1.9745-1.4449L78.677,65.3525l1.5906-1.5894-11.5288-38.7c-3.6369,3.4446-7.6451,7.0988-11.7045,10.7213l2.564,3.5033a1.2239,1.2239,0,0,1-1.9752,1.4458L55.198,37.4193c-7.7624,6.8846-15.5331,13.5153-21.0857,18.1969l3.4536,8.9791a1.2237,1.2237,0,0,1-.2765,1.3057l-3.6916,3.6913a1.2349,1.2349,0,0,1-1.73,0L13.4087,51.1343a1.2238,1.2238,0,0,1,0-1.73L17.1,45.7126a1.2267,1.2267,0,0,1,1.3045-.2774L27.3861,48.89c4.6814-5.5517,11.3132-13.3228,18.1968-21.0838L15.0515,5.4579a1.2349,1.2349,0,0,1-.1428-1.8524L18.0235.4908a1.2247,1.2247,0,0,1,1.215-.3073L31.339,3.788l2.3742-2.3747a3.835,3.835,0,0,1,5.9015,4.84l1.68.5006,2.5709-2.5708A3.8317,3.8317,0,0,1,49.6112,9.23L59.838,12.2765c1.1707-1.2172,2.311-2.381,3.4093-3.48a40.4878,40.4878,0,0,1,9.4318-7.2442C77.6115-.9957,80.248.0706,81.5905,1.4133S84,5.3928,81.4523,10.3247Zm-3.03,38.6716L79.86,47.5578a1.3866,1.3866,0,1,0-1.9612-1.9608l-.3775.3777Zm-2.9656-9.955,1.6351-1.6355A1.3866,1.3866,0,1,0,75.13,35.445l-.5742.5738ZM32.733,66.9962l2.2639-2.2635-2.8654-7.45c-2.2251,1.8687-3.9479,3.3018-4.9662,4.1467ZM18.269,48.0051l-2.2645,2.2635,5.5677,5.5671c.8451-1.0183,2.2779-2.74,4.1472-4.9653Zm19.1365-44.86a1.3874,1.3874,0,0,0-1.9612,0L34.0058,4.5823l3.0222.9.3775-.3768A1.3884,1.3884,0,0,0,37.4055,3.1446ZM47.5574,5.9124a1.4007,1.4007,0,0,0-1.9612,0L43.961,7.547l3.0229.9.5735-.5729A1.3879,1.3879,0,0,0,47.5574,5.9124ZM19.2385,2.7371l-1.59,1.59L47.2166,25.9688C50.84,21.91,54.4957,17.9014,57.94,14.2644ZM79.86,3.1446c-1.3883-1.3888-4.0608-.45-6.0576.582a38.583,38.583,0,0,0-8.8245,6.8005C50.1234,25.3815,27.5758,52.4282,23.31,57.5743l2.1173,2.1171c5.1463-4.2659,32.1949-26.8127,47.0492-41.6653a38.617,38.617,0,0,0,6.8011-8.8246C80.3089,7.2046,81.2485,4.5317,79.86,3.1446ZM2.0874,20.6484a1.2372,1.2372,0,0,1-1.7309,0,1.2227,1.2227,0,0,1,0-1.73L10.7984,8.4768a1.2236,1.2236,0,0,1,1.73,1.73Zm20.4581-3.0361a1.2239,1.2239,0,0,1,1.73,1.7313l-4.5683,4.5677a1.2235,1.2235,0,1,1-1.73-1.73ZM16.02,13.6979a1.2233,1.2233,0,1,1,1.73,1.73l-6.5265,6.5258a1.2233,1.2233,0,1,1-1.7295-1.73ZM64.3125,58.7255a1.2239,1.2239,0,0,1,1.73,1.7313L61.475,65.0245a1.2241,1.2241,0,0,1-1.7309-1.7313Zm3.9163,6.5258a1.2233,1.2233,0,0,1,1.7295,1.73l-6.5258,6.5259a1.2235,1.2235,0,1,1-1.73-1.73Zm5.22,5.2211a1.2236,1.2236,0,0,1,1.73,1.73L64.7376,82.6439a1.2235,1.2235,0,1,1-1.73-1.73Z" transform="translate(0.0022 -0.0038)"/></svg>