<svg width="29" height="30" id="next" xmlns="http://www.w3.org/2000/svg" viewBox="0 0 28.734 29.778"><defs><style>.cls-1{fill:#1086b4;fill-rule:evenodd;}</style></defs><title>next</title><path class="cls-1" d="M11.7448,28.8984a3.0438,3.0438,0,0,1,0-4.3151L18.36,17.9915H3.0678a3.0512,3.0512,0,1,1,0-6.1023H18.4344l-6.69-6.6664a3.0565,3.0565,0,0,1,4.33-4.3151L27.3523,12.1459a3.0553,3.0553,0,0,1,.4986.653,3.0385,3.0385,0,0,1-.1116,4.39,3.0731,3.0731,0,0,1-.387.4711L16.0748,28.8984A3.0694,3.0694,0,0,1,11.7448,28.8984Z" transform="translate(0 -0.0141)"/></svg>