<svg width="84" height="76" id="personalization" xmlns="http://www.w3.org/2000/svg" viewBox="0 0 84 76.0005"><defs><style>.cls-1{fill:#9d6396;fill-rule:evenodd;}</style></defs><title>personalization</title><path class="cls-1" d="M75.8056,76H8.1943A8.1863,8.1863,0,0,1,0,67.84V22.9174a8.1855,8.1855,0,0,1,8.1943-8.1587H25.8158V8.6142a7.6933,7.6933,0,0,1,6.7166-7.6066V.9986a1.0022,1.0022,0,0,1,1.004-.9994H50.4635a1.0022,1.0022,0,0,1,1.004.9994v.009a7.6935,7.6935,0,0,1,6.7167,7.6066v6.1445H75.8056A8.1856,8.1856,0,0,1,84,22.9174V67.84A8.1864,8.1864,0,0,1,75.8056,76ZM9.5378,16.7575H8.1943a6.1807,6.1807,0,0,0-6.1864,6.16V67.84A6.18,6.18,0,0,0,8.1942,74H9.5378ZM32.5322,3.029a5.6887,5.6887,0,0,0-4.7087,5.5852l0,6.1445h2.7475V8.6142a2.94,2.94,0,0,1,1.961-2.7632ZM49.46,1.9989H34.54V6.4446H49.46Zm1.9609,6.6153a.9284.9284,0,0,0-.1757-.5431,1.003,1.003,0,0,1-.7813.3723H33.5362a1.0031,1.0031,0,0,1-.7813-.3723.9291.9291,0,0,0-.1757.5431v6.1445H51.4205Zm4.7557,0A5.6886,5.6886,0,0,0,51.4675,3.029V5.851a2.94,2.94,0,0,1,1.9611,2.7632v6.1445h2.7476Zm-37.44,8.1433v9.1544a1.004,1.004,0,0,1-2.0079,0V16.7575H11.5457V74h5.1826V34.2423a1.004,1.004,0,0,1,2.008,0V74H65.2635V16.7575Zm48.5355,0V74h5.1822l0-57.2425Zm14.72,6.16a6.1806,6.1806,0,0,0-6.1862-6.16H74.4621V74h1.3435a6.18,6.18,0,0,0,6.1864-6.16ZM47.8443,63.2128h-14.99a1.0016,1.0016,0,0,1-1.004-.9994V51.8761a1.0015,1.0015,0,0,1,1.004-.9993h14.99a1.0015,1.0015,0,0,1,1.004.9993V62.2134A1.0016,1.0016,0,0,1,47.8443,63.2128ZM46.84,52.8755H33.8581v8.3376H46.84ZM42.186,39.6305l-12.718,7.9a1.0054,1.0054,0,0,1-1.3831-.319L22.59,38.4422h0a.9983.9983,0,0,1,.3214-1.378l12.7171-7.9a1.0069,1.0069,0,0,1,1.3831.319l5.4952,8.77A.9972.9972,0,0,1,42.186,39.6305ZM35.839,31.39,24.8248,38.2317l4.4323,7.0743,11.0142-6.843ZM5.3546,44.1639a1.0017,1.0017,0,0,1-1.0041-.9994V27.8357a1.004,1.004,0,0,1,2.008,0V43.1645A1.0016,1.0016,0,0,1,5.3546,44.1639Zm0-19.66a1.0025,1.0025,0,0,1-1.0041-1v-.3325a1.004,1.004,0,0,1,2.008,0v.3325A1.0024,1.0024,0,0,1,5.3546,24.5041Z" transform="translate(0 0.0008)"/></svg>