<svg width="45" height="33" id="quote1" xmlns="http://www.w3.org/2000/svg" viewBox="0 0 45.3817 32.9735"><defs><style>.cls-1{fill:#1086b4;fill-rule:evenodd;}</style></defs><title>quote1</title><path class="cls-1" d="M36.9152,32.9749a10.1249,10.1249,0,0,1-7.5714-3.6424,12.8428,12.8428,0,0,1-3.372-9.074A19.566,19.566,0,0,1,30.2346,8.0218,22.8634,22.8634,0,0,1,42.3233.1939v2.428q-6.4272,3.707-8.4621,6.646a11.8136,11.8136,0,0,0-2.036,6.9008,4.3068,4.3068,0,0,0,.7,2.6846,1.9219,1.9219,0,0,0,1.4633.8946,6.8381,6.8381,0,0,0,2.1-.5114,8.1116,8.1116,0,0,1,2.8-.5115,6.3236,6.3236,0,0,1,4.5491,1.885,6.21,6.21,0,0,1,1.9406,4.6327,7.218,7.218,0,0,1-2.45,5.4325A8.4546,8.4546,0,0,1,36.9152,32.9749ZM11.13,32.9117a10.308,10.308,0,0,1-7.6985-3.7066A12.9364,12.9364,0,0,1-.0044,20.0669,19.2255,19.2255,0,0,1,4.2266,8.1492Q8.457,2.6232,16.4743.0014V2.6219q-5.5993,2.94-8.0167,6.1346A11.2965,11.2965,0,0,0,6.04,15.7214a5.3056,5.3056,0,0,0,.6363,3.0678,1.6492,1.6492,0,0,0,1.4.8946,7.34,7.34,0,0,0,2.2269-.48,7.9433,7.9433,0,0,1,2.5451-.4789,6.2172,6.2172,0,0,1,4.549,1.9491,6.4948,6.4948,0,0,1,1.9407,4.7611,6.9773,6.9773,0,0,1-2.3542,5.2717A8.2385,8.2385,0,0,1,11.13,32.9117Z" transform="translate(0.0044 -0.0014)"/></svg>