<svg width="45" height="33" id="quote2" xmlns="http://www.w3.org/2000/svg" viewBox="0 0 45.3817 32.9735"><defs><style>.cls-1{fill:#1086b4;fill-rule:evenodd;}</style></defs><title>quote2</title><path class="cls-1" d="M40.7842,24.828q-4.2319,5.5273-12.2477,8.1469V30.2912a23.4351,23.4351,0,0,0,7.9849-6.1021,11.3414,11.3414,0,0,0,2.45-6.9975,5.6571,5.6571,0,0,0-.6363-3.131,1.784,1.784,0,0,0-1.4-.8313,6.9488,6.9488,0,0,0-2.2269.5114,7.8819,7.8819,0,0,1-2.545.5115,6.1662,6.1662,0,0,1-4.5492-1.9816,6.516,6.516,0,0,1-1.94-4.7286,7.0721,7.0721,0,0,1,2.3541-5.3033,8.0873,8.0873,0,0,1,5.79-2.2373A10.3346,10.3346,0,0,1,41.58,3.74,13.0541,13.0541,0,0,1,45.0153,12.91,19.2273,19.2273,0,0,1,40.7842,24.828ZM2.6875,32.9749V30.2912q6.4257-3.642,8.43-6.6135a11.9906,11.9906,0,0,0,2.0042-6.8692,4.6455,4.6455,0,0,0-.6362-2.6846,1.9663,1.9663,0,0,0-1.5271-.8946,6.8515,6.8515,0,0,0-2.0359.5114,8.0992,8.0992,0,0,1-2.7995.5115,6.2324,6.2324,0,0,1-4.581-1.9175A6.3621,6.3621,0,0,1-.3664,7.67a7.1494,7.1494,0,0,1,2.45-5.3683A8.3718,8.3718,0,0,1,8.032.0014a10.226,10.226,0,0,1,7.6031,3.6424,12.9525,12.9525,0,0,1,3.404,9.2024,19.6091,19.6091,0,0,1-4.2947,12.2691A22.9433,22.9433,0,0,1,2.6875,32.9749Z" transform="translate(0.3664 -0.0014)"/></svg>